<svg id="ajustes" xmlns="http://www.w3.org/2000/svg" width="20.296" height="22.557" viewBox="0 0 20.296 22.557">
  <path id="Trazado_4" data-name="Trazado 4" d="M11.76,8a3.76,3.76,0,1,0,3.76,3.76A3.76,3.76,0,0,0,11.76,8Zm0,5.639a1.88,1.88,0,1,1,1.88-1.88A1.88,1.88,0,0,1,11.76,13.639Z" transform="translate(-1.611 -0.481)" fill="#564b80"/>
  <path id="Trazado_5" data-name="Trazado 5" d="M20.086,13.064l-.417-.241a8.553,8.553,0,0,0,0-3.092l.417-.241A2.821,2.821,0,1,0,17.267,4.6l-.418.242A8.437,8.437,0,0,0,14.171,3.3V2.82a2.82,2.82,0,0,0-5.639,0V3.3A8.437,8.437,0,0,0,5.855,4.849l-.42-.243a2.821,2.821,0,1,0-2.82,4.887l.417.241a8.553,8.553,0,0,0,0,3.092l-.417.241a2.821,2.821,0,1,0,2.82,4.887l.418-.242a8.437,8.437,0,0,0,2.679,1.543v.482a2.82,2.82,0,0,0,5.639,0v-.482a8.437,8.437,0,0,0,2.677-1.547l.42.242a2.821,2.821,0,0,0,2.82-4.887ZM17.692,9.515a6.624,6.624,0,0,1,0,3.525.94.94,0,0,0,.436,1.065l1.019.588a.94.94,0,1,1-.94,1.629l-1.021-.59a.94.94,0,0,0-1.142.155A6.564,6.564,0,0,1,13,17.649a.94.94,0,0,0-.706.911v1.178a.94.94,0,0,1-1.88,0V18.561A.94.94,0,0,0,9.7,17.65a6.564,6.564,0,0,1-3.047-1.766.94.94,0,0,0-1.142-.155L4.5,16.318a.94.94,0,1,1-.94-1.628L4.575,14.1a.94.94,0,0,0,.436-1.065,6.624,6.624,0,0,1,0-3.525.94.94,0,0,0-.437-1.061L3.556,7.863A.94.94,0,0,1,4.5,6.234l1.021.59a.94.94,0,0,0,1.141-.151A6.564,6.564,0,0,1,9.705,4.911.94.94,0,0,0,10.411,4V2.82a.94.94,0,1,1,1.88,0V4A.94.94,0,0,0,13,4.907a6.564,6.564,0,0,1,3.048,1.766.94.94,0,0,0,1.142.155l1.019-.589a.94.94,0,1,1,.94,1.628l-1.019.588a.94.94,0,0,0-.435,1.061Z" transform="translate(-1.203)" fill="#564b80"/>
</svg>
