<svg xmlns="http://www.w3.org/2000/svg" width="22.555" height="22.557" viewBox="0 0 22.555 22.557">
  <path id="avion-de-papel" d="M21.73.829A2.788,2.788,0,0,0,19.1.077L4.06,3.245a4.695,4.695,0,0,0-2.682,7.971L2.993,12.83a.94.94,0,0,1,.275.665v2.978A2.787,2.787,0,0,0,3.55,17.68l-.008.007.024.024a2.82,2.82,0,0,0,1.28,1.274l.024.024L4.878,19a2.787,2.787,0,0,0,1.208.282H9.064a.94.94,0,0,1,.665.274l1.614,1.614a4.665,4.665,0,0,0,3.308,1.384,4.746,4.746,0,0,0,1.509-.248A4.636,4.636,0,0,0,19.3,18.563L22.474,3.492A2.8,2.8,0,0,0,21.73.829ZM4.324,11.5,2.708,9.889A2.763,2.763,0,0,1,2.029,7a2.8,2.8,0,0,1,2.35-1.9L19.268,1.961,5.146,16.084V13.495A2.8,2.8,0,0,0,4.324,11.5Zm13.131,6.739a2.82,2.82,0,0,1-4.783,1.609l-1.617-1.617a2.8,2.8,0,0,0-1.992-.825H6.474L20.6,3.29Z" transform="translate(-0.003 -0.001)" fill="#564b80"/>
</svg>
