<svg id="briefcase" xmlns="http://www.w3.org/2000/svg" width="22.856" height="21.434" viewBox="0 0 22.856 21.434">
  <g id="Capa_1" data-name="Capa 1" transform="translate(0 0)">
    <path id="Trazado_43" data-name="Trazado 43" d="M203.133,63.593h-8.406a2.841,2.841,0,0,1-3-2.991c0-3.725.006-7.451,0-11.176a2.833,2.833,0,0,1,2.918-2.915c.764.053,1.528-.006,2.292.015.382.01.548-.114.529-.519-.027-.556-.026-1.116,0-1.671a2.113,2.113,0,0,1,2.238-2.166q3.439-.021,6.877,0a2.138,2.138,0,0,1,2.264,2.245c.014.524.029,1.051-.006,1.575-.028.437.151.548.554.537.8-.022,1.591-.01,2.388-.006a2.768,2.768,0,0,1,2.787,2.741q.027,5.778,0,11.558a2.815,2.815,0,0,1-2.881,2.77C208.831,63.6,205.979,63.593,203.133,63.593Zm.008-1.366h8.449a1.454,1.454,0,0,0,1.64-1.6c.016-1.734,0-3.468.01-5.2,0-.316-.1-.465-.435-.464q-2.84.013-5.681,0c-.353,0-.478.145-.47.488.014.795.009,1.59,0,2.388,0,.52-.191.744-.71.749q-2.793.024-5.585,0c-.543,0-.736-.235-.739-.779-.006-.779-.015-1.559,0-2.338.01-.37-.121-.51-.495-.507q-2.793.016-5.585,0c-.375,0-.49.132-.486.5.016,1.719,0,3.439.01,5.158a1.444,1.444,0,0,0,1.624,1.611ZM193.084,53.6c.149.013.242.031.334.031q9.693,0,19.385.008c.342,0,.437-.117.434-.442-.013-1.209,0-2.42-.008-3.63s-.532-1.711-1.724-1.711H194.416a1.324,1.324,0,0,0-1.315,1.213C193.056,50.564,193.084,52.057,193.084,53.6Zm10.069-7.077c1.257,0,2.514-.017,3.77.01.468.01.624-.154.585-.607-.032-.382,0-.764-.007-1.146,0-1.027-.245-1.275-1.259-1.277h-4.3c-.7,0-1.4-.012-2.1,0-.771.018-1.03.287-1.043,1.051-.009.478.023.955-.011,1.433-.03.424.127.552.543.545C200.608,46.507,201.88,46.52,203.153,46.52Zm-.013,10.7c.586,0,1.175-.013,1.761,0,.337.011.448-.122.434-.448-.021-.459-.017-.921,0-1.38.011-.3-.083-.443-.4-.441q-1.787.011-3.571,0c-.31,0-.419.13-.41.432q.024.714,0,1.428c-.011.316.121.416.423.409C201.967,57.215,202.552,57.225,203.139,57.225Z" transform="translate(-191.72 -42.16)" fill="#564b80"/>
  </g>
</svg>
