<svg xmlns="http://www.w3.org/2000/svg" width="22.558" height="20.656" viewBox="0 0 22.558 20.656">
  <path id="comprobacion-de-lista" d="M3.76,5.641a2.8,2.8,0,0,1-1.994-.826L.314,3.523a.941.941,0,1,1,1.252-1.4l1.49,1.329a.94.94,0,0,0,1.368.038L7.811.261a.94.94,0,0,1,1.3,1.361L5.733,4.831A2.786,2.786,0,0,1,3.76,5.641Zm18.8-1.88a.94.94,0,0,0-.94-.94h-9.4a.94.94,0,0,0,0,1.88h9.4A.94.94,0,0,0,22.557,3.761ZM5.733,12.35,9.107,9.141a.94.94,0,1,0-1.3-1.361L4.428,11A.962.962,0,0,1,3.1,11L1.6,9.515A.94.94,0,1,0,.275,10.844l1.49,1.49a2.82,2.82,0,0,0,3.972.016Zm16.824-1.07a.94.94,0,0,0-.94-.94h-9.4a.94.94,0,0,0,0,1.88h9.4A.94.94,0,0,0,22.557,11.28ZM5.733,19.869,9.1,16.66a.94.94,0,1,0-1.3-1.361L4.424,18.524a.94.94,0,0,1-1.368-.038l-1.49-1.329a.941.941,0,0,0-1.252,1.4l1.451,1.291a2.82,2.82,0,0,0,3.972.016ZM22.557,18.8a.94.94,0,0,0-.94-.94h-9.4a.94.94,0,0,0,0,1.88h9.4A.94.94,0,0,0,22.557,18.8Z" transform="translate(0.001 -0.023)" fill="#564b80"/>
</svg>
