<svg id="desconectar" xmlns="http://www.w3.org/2000/svg" width="16.394" height="16.397" viewBox="0 0 16.394 16.397">
  <path id="Trazado_11" data-name="Trazado 11" d="M118.662,109.771l-2.65-2.65a.683.683,0,0,0-.966.966l2.65,2.65a1.406,1.406,0,0,1,.2.266c-.01,0-.018-.005-.029-.005h0l-10.715.022a.683.683,0,1,0,0,1.366h0l10.711-.022c.019,0,.035-.01.053-.011a1.366,1.366,0,0,1-.228.316l-2.65,2.65a.683.683,0,1,0,.949.983l.017-.017,2.65-2.65a2.733,2.733,0,0,0,0-3.864Z" transform="translate(-103.065 -103.504)" fill="#f0ecff"/>
  <path id="Trazado_12" data-name="Trazado 12" d="M4.823,15.03H3.457a2.05,2.05,0,0,1-2.05-2.05V3.416a2.05,2.05,0,0,1,2.05-2.05H4.823A.683.683,0,0,0,4.823,0H3.457A3.42,3.42,0,0,0,.041,3.416v9.565A3.42,3.42,0,0,0,3.457,16.4H4.823a.683.683,0,1,0,0-1.366Z" transform="translate(-0.041)" fill="#f0ecff"/>
</svg>
