<svg id="Componente_3_1" data-name="Componente 3 – 1" xmlns="http://www.w3.org/2000/svg" width="31.016" height="22.557" viewBox="0 0 31.016 22.557">
  <path id="usuarios" d="M7.049,12.219a4.23,4.23,0,1,1,4.23-4.23,4.23,4.23,0,0,1-4.23,4.23Zm0-6.579A2.35,2.35,0,1,0,9.4,7.989,2.35,2.35,0,0,0,7.049,5.639ZM14.1,21.618v-.47a7.049,7.049,0,0,0-14.1,0v.47a.94.94,0,1,0,1.88,0v-.47a5.169,5.169,0,1,1,10.339,0v.47a.94.94,0,1,0,1.88,0Zm8.459-4.7a6.579,6.579,0,0,0-10.966-4.9.94.94,0,1,0,1.254,1.4,4.7,4.7,0,0,1,7.832,3.5.94.94,0,1,0,1.88,0ZM16.448,8.459a4.23,4.23,0,1,1,4.23-4.23,4.23,4.23,0,0,1-4.23,4.23Zm0-6.579A2.35,2.35,0,1,0,18.8,4.23,2.35,2.35,0,0,0,16.448,1.88Z" transform="translate(8.459)" fill="#fff"/>
  <path id="usuarios-2" data-name="usuarios" d="M15.508,12.219a4.23,4.23,0,1,0-4.23-4.23,4.23,4.23,0,0,0,4.23,4.23Zm0-6.579a2.35,2.35,0,1,1-2.35,2.35A2.35,2.35,0,0,1,15.508,5.639ZM8.459,21.618v-.47a7.049,7.049,0,0,1,14.1,0v.47a.94.94,0,0,1-1.88,0v-.47a5.169,5.169,0,1,0-10.339,0v.47a.94.94,0,0,1-1.88,0ZM0,16.918a6.579,6.579,0,0,1,10.966-4.9.94.94,0,1,1-1.254,1.4,4.7,4.7,0,0,0-7.832,3.5.94.94,0,1,1-1.88,0ZM6.109,8.459A4.23,4.23,0,1,0,1.88,4.23a4.23,4.23,0,0,0,4.23,4.23Zm0-6.579A2.35,2.35,0,1,1,3.76,4.23,2.35,2.35,0,0,1,6.109,1.88Z" fill="#fff"/>
</svg>
