<svg xmlns="http://www.w3.org/2000/svg" width="22.268" height="24.749" viewBox="0 0 22.268 24.749">
  <g id="Grupo_15" data-name="Grupo 15" transform="translate(-64.057 -748.158)">
    <path id="Trazado_59" data-name="Trazado 59" d="M11.76,8a3.76,3.76,0,1,0,3.76,3.76A3.76,3.76,0,0,0,11.76,8Zm0,5.639a1.88,1.88,0,1,1,1.88-1.88A1.88,1.88,0,0,1,11.76,13.639Z" transform="translate(63.432 748.773)" fill="#564b80"/>
    <path id="Trazado_60" data-name="Trazado 60" d="M21.921,14.334l-.458-.264a9.384,9.384,0,0,0,0-3.393l.458-.264a3.1,3.1,0,1,0-3.094-5.362l-.459.265A9.257,9.257,0,0,0,15.43,3.623V3.094a3.094,3.094,0,0,0-6.187,0v.529a9.257,9.257,0,0,0-2.937,1.7l-.461-.267a3.1,3.1,0,1,0-3.094,5.362l.458.264a9.384,9.384,0,0,0,0,3.393l-.458.264A3.1,3.1,0,0,0,5.845,19.7l.459-.265a9.257,9.257,0,0,0,2.939,1.693v.529a3.094,3.094,0,0,0,6.187,0v-.529a9.257,9.257,0,0,0,2.937-1.7l.461.266a3.1,3.1,0,0,0,3.094-5.362ZM19.293,10.44a7.268,7.268,0,0,1,0,3.867,1.031,1.031,0,0,0,.478,1.168l1.118.646a1.032,1.032,0,1,1-1.031,1.787l-1.12-.648a1.031,1.031,0,0,0-1.253.17,7.2,7.2,0,0,1-3.344,1.933,1.031,1.031,0,0,0-.774,1v1.292a1.031,1.031,0,0,1-2.062,0V20.364a1.031,1.031,0,0,0-.774-1,7.2,7.2,0,0,1-3.343-1.938,1.031,1.031,0,0,0-1.253-.17L4.816,17.9a1.031,1.031,0,1,1-1.031-1.786L4.9,15.472A1.031,1.031,0,0,0,5.381,14.3a7.268,7.268,0,0,1,0-3.867A1.031,1.031,0,0,0,4.9,9.273L3.784,8.627A1.032,1.032,0,0,1,4.815,6.84l1.12.648a1.031,1.031,0,0,0,1.252-.166,7.2,7.2,0,0,1,3.344-1.933,1.031,1.031,0,0,0,.774-1V3.094a1.031,1.031,0,1,1,2.062,0V4.385a1.031,1.031,0,0,0,.774,1,7.2,7.2,0,0,1,3.344,1.938,1.031,1.031,0,0,0,1.253.17l1.118-.647a1.031,1.031,0,1,1,1.031,1.786l-1.118.646a1.031,1.031,0,0,0-.477,1.164Z" transform="translate(62.854 748.158)" fill="#564b80"/>
  </g>
</svg>
