<svg xmlns="http://www.w3.org/2000/svg" width="22.839" height="22.829" viewBox="0 0 22.839 22.829">
  <g id="Grupo_13" data-name="Grupo 13" transform="translate(-285.752 77.55)">
    <path id="Trazado_55" data-name="Trazado 55" d="M297.179-54.721a11.4,11.4,0,0,1-11.427-11.344A11.371,11.371,0,0,1,297.194-77.55a11.35,11.35,0,0,1,11.4,11.522A11.377,11.377,0,0,1,297.179-54.721Zm-.04-2.06a9.312,9.312,0,0,0,9.378-9.316,9.27,9.27,0,0,0-9.31-9.373,9.251,9.251,0,0,0-9.376,9.305A9.294,9.294,0,0,0,297.139-56.781Z" transform="translate(0 0)" fill="#564b80"/>
    <path id="Trazado_56" data-name="Trazado 56" d="M368.675-15.6h-.811c-.9,0-1.192.255-1.333,1.141a.926.926,0,0,1-.765.859,1.025,1.025,0,0,1-1.277-1.171,2.95,2.95,0,0,1,2.8-2.861,21.551,21.551,0,0,1,2.86,0,2.754,2.754,0,0,1,2.6,1.917,2.9,2.9,0,0,1-.781,3.357,17.623,17.623,0,0,1-2.045,1.39,1.073,1.073,0,0,0-.586.743.914.914,0,0,1-.993.718.984.984,0,0,1-.943-.855c-.19-1.176-.047-1.488.972-2.115.663-.408,1.324-.819,1.989-1.223a.939.939,0,0,0,.557-1.009,1.048,1.048,0,0,0-1-.868c-.411-.032-.826-.006-1.24-.006Z" transform="translate(-71.213 -54.148)" fill="#564b80"/>
    <path id="Trazado_57" data-name="Trazado 57" d="M390.958,81.348a1.276,1.276,0,0,1,1.37-1.326,1.385,1.385,0,1,1,0,2.771A1.322,1.322,0,0,1,390.958,81.348Z" transform="translate(-95.157 -142.521)" fill="#564b80"/>
  </g>
</svg>
