<svg xmlns="http://www.w3.org/2000/svg" width="23.3" height="22.584" viewBox="0 0 23.3 22.584">
  <g id="Grupo_14" data-name="Grupo 14" transform="translate(-151.953 225.559)">
    <path id="Trazado_58" data-name="Trazado 58" d="M157.047-202.975a1.109,1.109,0,0,1-1.035-1.306c.2-1.287.432-2.57.654-3.853.155-.9.338-1.79.459-2.692a.859.859,0,0,0-.276-.589c-1.5-1.507-3.009-2.995-4.511-4.494a.986.986,0,0,1-.011-1.557,1.839,1.839,0,0,1,.783-.274c2.033-.307,4.07-.585,6.1-.905a.917.917,0,0,0,.588-.431c.9-1.814,1.774-3.643,2.654-5.469.048-.1.1-.2.144-.3a1.082,1.082,0,0,1,.971-.716,1.09,1.09,0,0,1,1.025.707c.909,1.9,1.833,3.789,2.732,5.692a.894.894,0,0,0,.786.552c1.694.231,3.384.492,5.076.745.4.06.809.115,1.208.2a.961.961,0,0,1,.529,1.682c-.828.861-1.69,1.689-2.538,2.531-.725.72-1.457,1.434-2.169,2.166a.608.608,0,0,0-.147.452c.314,1.969.647,3.935.974,5.9.046.279.1.557.128.837a1.028,1.028,0,0,1-1.556.934c-1.22-.616-2.418-1.274-3.625-1.916-.707-.376-1.407-.768-2.125-1.121a.7.7,0,0,0-.55,0c-1.839.956-3.667,1.934-5.5,2.9C157.571-203.167,157.3-203.081,157.047-202.975Zm-1.838-13c.181.2.288.328.406.446,1.093,1.084,2.185,2.171,3.286,3.247a1.225,1.225,0,0,1,.39,1.15c-.2,1.112-.405,2.222-.6,3.334-.1.578-.184,1.159-.29,1.834.236-.1.381-.142.513-.212,1.32-.695,2.646-1.377,3.95-2.1a1.367,1.367,0,0,1,1.459,0c1.277.707,2.569,1.386,3.858,2.071.156.083.328.138.558.234-.018-.178-.022-.267-.036-.354q-.4-2.439-.795-4.877a1.166,1.166,0,0,1,.395-1.095c1.1-1.074,2.19-2.166,3.281-3.253.113-.112.212-.239.353-.4-.191-.049-.295-.087-.4-.1-1.536-.227-3.071-.461-4.61-.668a1.185,1.185,0,0,1-.989-.69q-.982-2.011-1.964-4.022c-.1-.2-.216-.4-.369-.683-.127.211-.214.335-.28.47-.68,1.38-1.362,2.759-2.029,4.145a1.268,1.268,0,0,1-1.077.784c-1.09.131-2.175.3-3.261.466C156.4-216.169,155.854-216.077,155.208-215.974Z" transform="translate(0)" fill="#564b80"/>
  </g>
</svg>
