<svg xmlns="http://www.w3.org/2000/svg" width="15" height="20" viewBox="0 0 15 20">
  <g id="_01_align_center" data-name="01 align center" transform="translate(-3)">
    <path id="Trazado_30" data-name="Trazado 30" d="M18,22.333H16.333v-4.2a2.467,2.467,0,0,0-2.464-2.464H7.131a2.467,2.467,0,0,0-2.464,2.464v4.2H3v-4.2A4.136,4.136,0,0,1,7.131,14h6.738A4.136,4.136,0,0,1,18,18.131Z" transform="translate(0 -2.333)" fill="#564b80"/>
    <path id="Trazado_31" data-name="Trazado 31" d="M11,10a5,5,0,1,1,5-5A5,5,0,0,1,11,10Zm0-8.333A3.333,3.333,0,1,0,14.333,5,3.333,3.333,0,0,0,11,1.667Z" transform="translate(-0.5)" fill="#564b80"/>
  </g>
</svg>
